<svg width="24" height="24" viewBox="0 0 24 24" fill="none" xmlns="http://www.w3.org/2000/svg">
<path d="M18.75 11.35C18.4847 11.3476 18.2203 11.3209 17.96 11.27C17.7097 11.2175 17.4652 11.1404 17.23 11.04L17.06 11H16.94C16.84 11 16.79 11.07 16.79 11.21V11.54C16.7758 11.6025 16.7758 11.6675 16.79 11.73C16.8402 11.8123 16.9131 11.8782 17 11.92C17.2405 12.0403 17.4961 12.1278 17.76 12.18C18.0876 12.2583 18.4231 12.2986 18.76 12.3C19.0988 12.3102 19.4369 12.2628 19.76 12.16C20.0268 12.09 20.2757 11.9638 20.49 11.79C20.6925 11.6335 20.8595 11.4358 20.98 11.21C21.0946 10.9661 21.1527 10.6995 21.15 10.43C21.1536 10.0957 21.0483 9.76922 20.85 9.50001C20.5833 9.19704 20.2368 8.97525 19.85 8.86L18.9 8.56001C18.6345 8.49131 18.3861 8.36877 18.17 8.20001C18.1066 8.13923 18.0562 8.06625 18.0219 7.98547C17.9875 7.9047 17.9698 7.81779 17.97 7.73001C17.9628 7.61135 17.9878 7.49296 18.0424 7.38735C18.097 7.28174 18.1791 7.19283 18.28 7.13001C18.5567 6.99578 18.8629 6.93385 19.17 6.95C19.6075 6.93938 20.0418 7.02829 20.44 7.21001C20.5214 7.25151 20.6093 7.27857 20.7 7.29001C20.8 7.29001 20.85 7.21001 20.85 7.07001V6.71001C20.853 6.63226 20.832 6.55547 20.79 6.49C20.7366 6.42194 20.6681 6.36717 20.59 6.33001C20.5008 6.28091 20.407 6.24071 20.31 6.21001C20.1855 6.16608 20.0586 6.12935 19.93 6.10001L19.49 6.00001C19.3268 5.98822 19.1631 5.98822 19 6.00001C18.7194 5.99517 18.4396 6.03224 18.17 6.11001C17.9175 6.1837 17.6804 6.30225 17.47 6.46001C17.2748 6.60245 17.1141 6.78701 17 7.00001C16.8773 7.22708 16.8153 7.48196 16.82 7.74001C16.814 8.10103 16.9303 8.45346 17.15 8.74001C17.4245 9.07076 17.7949 9.30832 18.21 9.42001L19.21 9.72001C19.4574 9.77782 19.6872 9.89445 19.88 10.06C19.9997 10.1867 20.0644 10.3557 20.06 10.53C20.0621 10.6565 20.0309 10.7813 19.9695 10.8919C19.908 11.0025 19.8185 11.095 19.71 11.16C19.4131 11.3093 19.0813 11.375 18.75 11.35ZM12.94 6.50001C12.9245 6.40198 12.8791 6.31115 12.81 6.24C12.7352 6.18485 12.6424 6.15986 12.55 6.17001H12C11.908 6.1649 11.8169 6.18944 11.74 6.24C11.6671 6.30843 11.621 6.40063 11.61 6.50001L10.61 10.9L9.46997 6.50001C9.45178 6.40078 9.4028 6.30981 9.32997 6.24C9.32997 6.24 9.19997 6.17001 9.06997 6.17001H8.41997C8.30997 6.17001 8.25997 6.23001 8.25997 6.34001C8.26967 6.43199 8.2898 6.52257 8.31997 6.61001L9.87997 11.75C9.90024 11.8414 9.94131 11.927 9.99997 12C10.0786 12.0458 10.1692 12.0668 10.26 12.06H10.83C10.9239 12.0663 11.0176 12.0455 11.1 12C11.163 11.9221 11.2044 11.829 11.22 11.73L12.22 7.45001L13.22 11.74C13.2283 11.8381 13.2707 11.9301 13.34 12C13.4187 12.055 13.5145 12.0798 13.61 12.07H14.18C14.2687 12.0744 14.3564 12.0498 14.43 12C14.5052 11.9321 14.5546 11.8402 14.57 11.74L16.18 6.60001C16.1858 6.54683 16.1858 6.49318 16.18 6.44001C16.1839 6.40344 16.1839 6.36657 16.18 6.33001C16.1833 6.3069 16.1812 6.28333 16.1739 6.26118C16.1665 6.23902 16.1541 6.21889 16.1376 6.20238C16.1211 6.18587 16.101 6.17345 16.0788 6.16609C16.0566 6.15873 16.0331 6.15665 16.01 6.16001H15.39C15.2982 6.15626 15.2075 6.18068 15.13 6.23001C15.0684 6.30629 15.0241 6.39498 15 6.49L14 11L12.94 6.50001ZM5.76997 8.63001C5.53452 8.59911 5.29742 8.58242 5.05997 8.58001C4.47144 8.54908 3.89186 8.73398 3.42997 9.10001C3.23327 9.26846 3.07716 9.47916 2.97326 9.71638C2.86937 9.95359 2.82039 10.2112 2.82997 10.47C2.81834 10.7057 2.8559 10.9412 2.94026 11.1616C3.02462 11.3819 3.15393 11.5823 3.31997 11.75C3.49842 11.9147 3.70803 12.042 3.93645 12.1244C4.16486 12.2069 4.40747 12.2428 4.64997 12.23C5.03166 12.241 5.41074 12.1637 5.75764 12.0041C6.10455 11.8445 6.40993 11.607 6.64997 11.31C6.70842 11.4441 6.77522 11.5743 6.84997 11.7C6.92115 11.8099 7.00144 11.9136 7.08997 12.01C7.11415 12.0345 7.14296 12.0539 7.17472 12.0672C7.20647 12.0805 7.24055 12.0873 7.27497 12.0873C7.30939 12.0873 7.34346 12.0805 7.37522 12.0672C7.40698 12.0539 7.43578 12.0345 7.45997 12.01L7.87997 11.73C7.91503 11.7083 7.94486 11.6791 7.96733 11.6445C7.9898 11.61 8.00436 11.5709 8.00997 11.53C8.02613 11.4779 8.02613 11.4221 8.00997 11.37C7.92893 11.2185 7.85876 11.0614 7.79997 10.9C7.74639 10.7047 7.72279 10.5024 7.72997 10.3V8.19C7.75386 7.89366 7.71744 7.59556 7.62291 7.31368C7.52838 7.03181 7.3777 6.77202 7.17997 6.55001C6.92583 6.33632 6.63044 6.17722 6.31217 6.0826C5.9939 5.98798 5.65957 5.95986 5.32997 6.00001C4.99241 5.99988 4.65627 6.04358 4.32997 6.13001C4.03942 6.19755 3.75757 6.29821 3.48997 6.43001C3.41938 6.46119 3.35757 6.50927 3.30997 6.57001C3.28553 6.64473 3.28553 6.72529 3.30997 6.80001V7.13001C3.30997 7.27001 3.30997 7.33001 3.44997 7.33001C3.48621 7.33785 3.52372 7.33785 3.55997 7.33001L3.78997 7.25001C3.9931 7.1503 4.20374 7.06671 4.41997 7.00001C4.65544 6.94098 4.89721 6.91076 5.13997 6.91001C5.52653 6.86951 5.91373 6.98065 6.21997 7.22001C6.45811 7.51912 6.56941 7.89971 6.52997 8.28V8.77001L5.76997 8.63001ZM6.54997 9.53V9.80001C6.55075 9.99549 6.52723 10.1903 6.47997 10.38C6.43776 10.5393 6.35901 10.6865 6.24997 10.81C6.08323 11.006 5.86502 11.1515 5.61997 11.23C5.40138 11.3069 5.17167 11.3474 4.93997 11.35C4.81312 11.3594 4.68568 11.343 4.56536 11.3018C4.44504 11.2605 4.33434 11.1953 4.23997 11.11C4.15238 11.0151 4.08574 10.9029 4.04439 10.7806C4.00304 10.6582 3.98791 10.5286 3.99997 10.4C3.9917 10.2563 4.01726 10.1127 4.07457 9.98075C4.13188 9.84876 4.21936 9.73205 4.32997 9.64001C4.62141 9.4357 4.9753 9.34015 5.32997 9.37001H5.94997C6.15274 9.41234 6.35304 9.46575 6.54997 9.53ZM19.76 15C17.3694 16.0058 14.8035 16.5292 12.21 16.54C8.73851 16.5407 5.32666 15.6377 2.30997 13.92C2.06997 13.77 1.87997 14.02 2.08997 14.21C4.80527 16.6646 8.33965 18.0163 12 18C14.8865 18.0071 17.7086 17.1466 20.1 15.53C20.44 15.22 20.13 14.81 19.76 15Z" fill="#050505"/>
<path d="M18.3799 14.06C18.1899 14.2 18.2199 14.39 18.4299 14.36C19.1399 14.27 20.7099 14.09 20.9899 14.45C21.2699 14.81 20.6799 16.28 20.4099 16.94C20.3299 17.14 20.5099 17.22 20.6899 17.07C21.1452 16.6508 21.4943 16.1293 21.7082 15.5485C21.922 14.9677 21.9946 14.3444 21.9199 13.73C21.3453 13.5037 20.7255 13.4157 20.1106 13.473C19.4957 13.5303 18.9028 13.7314 18.3799 14.06Z" fill="#050505"/>
</svg>
