<svg width="24" height="24" viewBox="0 0 24 24" fill="none" xmlns="http://www.w3.org/2000/svg">
<path d="M15.3318 8.668C16.1981 8.64201 17.0202 8.27961 17.6237 7.65767C18.2273 7.03573 18.5649 6.20316 18.5649 5.3365C18.5649 4.46985 18.2273 3.63728 17.6237 3.01534C17.0202 2.3934 16.1981 2.031 15.3318 2.005H8.66785C7.80159 2.031 6.97951 2.3934 6.37596 3.01534C5.7724 3.63728 5.43483 4.46985 5.43483 5.3365C5.43483 6.20316 5.7724 7.03573 6.37596 7.65767C6.97951 8.27961 7.80159 8.64201 8.66785 8.668C7.79401 8.68314 6.96108 9.0409 6.34847 9.66422C5.73585 10.2875 5.39258 11.1265 5.39258 12.0005C5.39258 12.8745 5.73585 13.7135 6.34847 14.3368C6.96108 14.9601 7.79401 15.3179 8.66785 15.333C7.79828 15.3543 6.97149 15.7147 6.36401 16.3373C5.75653 16.9598 5.41649 17.7952 5.41649 18.665C5.41649 19.5348 5.75653 20.3702 6.36401 20.9927C6.97149 21.6153 7.79828 21.9757 8.66785 21.997C9.55156 21.9965 10.3989 21.6451 11.0237 21.0201C11.6485 20.3952 11.9996 19.5477 11.9998 18.664V8.668H15.3318Z" fill="#050505"/>
<path d="M15.332 15.332C17.1722 15.332 18.664 13.8402 18.664 12C18.664 10.1598 17.1722 8.668 15.332 8.668C13.4918 8.668 12 10.1598 12 12C12 13.8402 13.4918 15.332 15.332 15.332Z" fill="#050505"/>
</svg>
