<svg width="24" height="24" viewBox="0 0 24 24" fill="none" xmlns="http://www.w3.org/2000/svg">
<g clip-path="url(#clip0_205_2)">
<path d="M23.5472 10.9305L13.0682 0.453004C12.9248 0.309456 12.7544 0.195584 12.5669 0.117893C12.3794 0.0402016 12.1784 0.000213623 11.9755 0.000213623C11.7725 0.000213623 11.5716 0.0402016 11.3841 0.117893C11.1966 0.195584 11.0262 0.309456 10.8827 0.453004L8.70774 2.628L11.4677 5.388C11.7932 5.27687 12.1434 5.25948 12.4784 5.33783C12.8133 5.41617 13.1194 5.5871 13.3618 5.83109C13.6043 6.07509 13.7732 6.38232 13.8494 6.71773C13.9256 7.05314 13.906 7.40322 13.7927 7.728L16.4522 10.389C16.8457 10.2505 17.2746 10.25 17.6684 10.3878C18.0621 10.5256 18.3972 10.7933 18.6185 11.147C18.8397 11.5006 18.934 11.919 18.8857 12.3334C18.8374 12.7477 18.6494 13.1332 18.3527 13.4265C18.0524 13.7287 17.6565 13.9172 17.2326 13.9599C16.8087 14.0025 16.3832 13.8967 16.0287 13.6605C15.6741 13.4243 15.4126 13.0723 15.2888 12.6646C15.165 12.257 15.1865 11.819 15.3497 11.4255L12.8702 8.9445V15.474C13.2471 15.6606 13.5487 15.9707 13.7247 16.3526C13.9006 16.7345 13.9404 17.1653 13.8373 17.573C13.7342 17.9807 13.4945 18.3407 13.1581 18.5931C12.8218 18.8455 12.409 18.975 11.9888 18.96C11.5685 18.945 11.1661 18.7864 10.8486 18.5106C10.5311 18.2349 10.3177 17.8586 10.2439 17.4446C10.1702 17.0306 10.2405 16.6038 10.4433 16.2354C10.6461 15.867 10.969 15.5792 11.3582 15.42V8.8305C11.1337 8.73849 10.9295 8.60293 10.7576 8.43165C10.5857 8.26036 10.4494 8.05675 10.3565 7.83253C10.2636 7.60831 10.2161 7.36793 10.2165 7.12524C10.217 6.88255 10.2655 6.64236 10.3592 6.4185L7.63974 3.6975L0.454743 10.8825C0.311196 11.026 0.197324 11.1963 0.119632 11.3838C0.0419411 11.5713 0.00195313 11.7723 0.00195312 11.9753C0.00195313 12.1782 0.0419411 12.3792 0.119632 12.5667C0.197324 12.7542 0.311196 12.9245 0.454743 13.068L10.9337 23.547C11.0772 23.6906 11.2476 23.8044 11.4351 23.8821C11.6226 23.9598 11.8235 23.9998 12.0265 23.9998C12.2295 23.9998 12.4304 23.9598 12.6179 23.8821C12.8054 23.8044 12.9758 23.6906 13.1192 23.547L23.5487 13.1175C23.8383 12.8275 24.0009 12.4345 24.0009 12.0248C24.0009 11.615 23.8383 11.222 23.5487 10.932" fill="black"/>
</g>
<defs>
<clipPath id="clip0_205_2">
<rect width="24" height="24" fill="white"/>
</clipPath>
</defs>
</svg>
