<svg width="22" height="24" viewBox="0 0 22 24" fill="none" xmlns="http://www.w3.org/2000/svg">
<g clip-path="url(#clip0_203_2)">
<path d="M11.3614 8.79905L8.37971 0H21.0475L18.0555 8.82464C17.9267 8.85544 17.8002 8.89466 17.6766 8.94206L14.7209 2.91248L11.7566 8.90639C11.6274 8.86171 11.4954 8.82584 11.3614 8.79905ZM1.61954 23.2028C5.60396 26.0015 10.0235 20.586 16.0434 19.9038C19.5005 19.699 21.8502 17.5827 20.5114 14.3065C18.0221 15.8398 15.6956 13.8306 15.7119 11.8145H13.8203C13.7582 13.6145 12.4043 15.0306 10.3057 14.82C8.66302 17.2775 6.75914 18.6582 4.59886 19.36C3.13875 18.6862 1.76471 17.0448 2.38768 14.8526C2.11659 14.8223 1.85083 14.7556 1.5976 14.6542C-0.410621 18.4042 -0.658777 21.3678 1.61954 23.2028V23.2028ZM4.58583 11.8148C4.58583 10.3905 3.03338 9.49552 1.79818 10.2076C0.562973 10.9198 0.562879 12.7098 1.79818 13.4219C3.03338 14.1341 4.58583 13.2391 4.58583 11.8148ZM12.6206 11.7971C12.6206 10.3729 11.0681 9.47784 9.83288 10.19C8.59768 10.9022 8.59763 12.6922 9.83288 13.4042C11.0681 14.1164 12.6205 13.2214 12.6205 11.7971H12.6206ZM20.6251 11.7971C20.6251 10.3729 19.0726 9.47784 17.8374 10.19C16.6022 10.9022 16.6022 12.6922 17.8374 13.4042C19.0727 14.1164 20.6251 13.2214 20.6251 11.7971H20.6251Z" fill="black"/>
</g>
<defs>
<clipPath id="clip0_203_2">
<rect width="21.0938" height="24" fill="white"/>
</clipPath>
</defs>
</svg>
